<?xml version="1.0" encoding="UTF-8"?>
<svg id="Layer_1" data-name="Layer 1" xmlns="http://www.w3.org/2000/svg" viewBox="0 0 594.61 400.53">
  <defs>
    <style>
      .cls-1 {
        fill: #222;
      }
    </style>
  </defs>
  <path class="cls-1" d="m0,203.34c0,120.31,49.97,196.8,112.63,196.8,45.74,0,74.57-44.97,74.57-91.86,0-33.83-32.29-58.04-32.29-83.41,0-5.38,1.15-8.46,3.07-11.92-16.15,0-26.52,16.91-26.52,34.98,0,36.52,38.44,60.35,36.9,91.1-1.54,27.29-24.6,47.66-48.05,47.66-43.82,0-74.19-60.73-86.1-137.99v.38c-9.99-58.81,21.53-108.01,72.65-108.01,17.3,0,28.83,3.84,41.9,11.92v-35.36c-8.46-3.84-14.61-5.38-26.52-5.38-45.74,0-83.03,43.05-93.02,89.18-.39-9.22-.77-18.83-.77-28.06,0-56.12,19.99-153.37,48.05-153.37,26.14,0,39.21,24.22,74.19,24.22,21.14,0,36.52-14.22,36.52-36.52h-1.54c-7.3,7.31-13.45,9.23-21.14,9.23-14.99,0-31.91-16.92-52.28-16.92C45.36,0,0,83.8,0,203.34Z"/>
  <path class="cls-1" d="m232.54,107.63c0,91.09-23.83,96.48-23.83,154.14,0,43.05,43.43,104.55,84.56,138.76h1.54c8.07-13.45,84.95-108.01,84.95-215.64,0-63.81-19.6-92.64-19.6-120.7s14.22-39.2,31.91-56.89l-2.69-2.31c-4.61,4.23-13.84,5.77-23.06,5.77-25.76,0-33.44-10.38-51.12-10.38-21.91,0-39.59,18.07-39.21,36.14h1.54c3.08-4.23,9.61-10.38,18.83-10.38,12.3,0,23.83,9.22,41.52,9.22,6.53,0,16.91-1.92,22.68-4.61-15.38,19.98-24.21,36.9-24.21,57.27,0,39.97,19.98,75.34,19.98,137.99s-23.45,102.24-53.04,142.6c-33.44-24.98-75.72-93.4-75.72-141.45,0-38.06,31.14-86.1,31.14-146.45,0-36.14-6.15-48.43-21.14-72.65h-34.98c28.06,51.89,29.98,76.11,29.98,99.56Z"/>
  <path class="cls-1" d="m407.42,203.34c0,120.31,49.97,196.8,112.63,196.8,45.74,0,74.57-44.97,74.57-91.86,0-33.83-32.29-58.04-32.29-83.41,0-5.38,1.15-8.46,3.07-11.92-16.15,0-26.52,16.91-26.52,34.98,0,36.52,38.44,60.35,36.9,91.1-1.54,27.29-24.6,47.66-48.05,47.66-43.82,0-74.19-60.73-86.1-137.99v.38c-9.99-58.81,21.53-108.01,72.65-108.01,17.3,0,28.83,3.84,41.9,11.92v-35.36c-8.46-3.84-14.61-5.38-26.52-5.38-45.74,0-83.03,43.05-93.02,89.18-.39-9.22-.77-18.83-.77-28.06,0-56.12,19.99-153.37,48.05-153.37,26.14,0,39.21,24.22,74.19,24.22,21.14,0,36.52-14.22,36.52-36.52h-1.54c-7.3,7.31-13.45,9.23-21.14,9.23-14.99,0-31.91-16.92-52.28-16.92-66.88,0-112.24,83.8-112.24,203.34Z"/>
</svg>