<svg xmlns="http://www.w3.org/2000/svg" xmlns:xlink="http://www.w3.org/1999/xlink" width="1366" zoomAndPan="magnify" viewBox="0 0 1024.5 576" height="768" preserveAspectRatio="xMidYMid meet" version="1.0"><defs><g/></defs><g fill="#000000" fill-opacity="1"><g transform="translate(43.063465, 374.554366)"><g><path d="M 8.648438 -141.835938 C 8.648438 -51.601562 46.125 5.765625 93.117188 5.765625 C 127.421875 5.765625 149.042969 -27.964844 149.042969 -63.132812 C 149.042969 -88.503906 124.828125 -106.664062 124.828125 -125.691406 C 124.828125 -129.726562 125.691406 -132.035156 127.132812 -134.628906 C 115.023438 -134.628906 107.242188 -121.945312 107.242188 -108.394531 C 107.242188 -81.007812 136.070312 -63.132812 134.917969 -40.070312 C 133.765625 -19.601562 116.464844 -4.324219 98.882812 -4.324219 C 66.015625 -4.324219 43.242188 -49.875 34.304688 -107.816406 L 34.304688 -107.53125 C 26.808594 -151.636719 50.449219 -188.539062 88.792969 -188.539062 C 101.765625 -188.539062 110.414062 -185.65625 120.214844 -179.601562 L 120.214844 -206.125 C 113.871094 -209.007812 109.257812 -210.160156 100.324219 -210.160156 C 66.015625 -210.160156 38.054688 -177.871094 30.558594 -143.277344 C 30.269531 -150.195312 29.980469 -157.402344 29.980469 -164.320312 C 29.980469 -206.410156 44.972656 -279.347656 66.015625 -279.347656 C 85.621094 -279.347656 95.421875 -261.183594 121.65625 -261.183594 C 137.511719 -261.183594 149.042969 -271.851562 149.042969 -288.574219 L 147.890625 -288.574219 C 142.414062 -283.09375 137.800781 -281.652344 132.035156 -281.652344 C 120.792969 -281.652344 108.105469 -294.339844 92.828125 -294.339844 C 42.667969 -294.339844 8.648438 -231.492188 8.648438 -141.835938 Z M 8.648438 -141.835938 "/></g></g></g><g fill="#000000" fill-opacity="1"><g transform="translate(200.746947, 374.554366)"><g><path d="M 25.367188 -213.617188 C 25.367188 -145.296875 7.496094 -141.257812 7.496094 -98.015625 C 7.496094 -65.730469 40.070312 -19.601562 70.917969 6.054688 L 72.070312 6.054688 C 78.125 -4.035156 135.78125 -74.953125 135.78125 -155.671875 C 135.78125 -203.527344 121.078125 -225.148438 121.078125 -246.195312 C 121.078125 -267.527344 131.746094 -275.597656 145.007812 -288.859375 L 142.988281 -290.589844 C 139.53125 -287.417969 132.609375 -286.265625 125.691406 -286.265625 C 106.375 -286.265625 100.609375 -294.050781 87.351562 -294.050781 C 70.917969 -294.050781 57.65625 -280.5 57.945312 -266.949219 L 59.097656 -266.949219 C 61.40625 -270.121094 66.304688 -274.734375 73.222656 -274.734375 C 82.449219 -274.734375 91.097656 -267.816406 104.359375 -267.816406 C 109.257812 -267.816406 117.042969 -269.257812 121.367188 -271.273438 C 109.835938 -256.285156 103.207031 -243.601562 103.207031 -228.320312 C 103.207031 -198.339844 118.195312 -171.816406 118.195312 -124.828125 C 118.195312 -78.125 100.609375 -48.144531 78.414062 -17.875 C 53.332031 -36.613281 21.621094 -87.925781 21.621094 -123.960938 C 21.621094 -152.503906 44.972656 -188.539062 44.972656 -233.796875 C 44.972656 -260.898438 40.359375 -270.121094 29.117188 -288.285156 L 2.882812 -288.285156 C 23.925781 -249.367188 25.367188 -231.203125 25.367188 -213.617188 Z M 25.367188 -213.617188 "/></g></g></g><g fill="#000000" fill-opacity="1"><g transform="translate(348.629255, 374.554366)"><g><path d="M 8.648438 -141.835938 C 8.648438 -51.601562 46.125 5.765625 93.117188 5.765625 C 127.421875 5.765625 149.042969 -27.964844 149.042969 -63.132812 C 149.042969 -88.503906 124.828125 -106.664062 124.828125 -125.691406 C 124.828125 -129.726562 125.691406 -132.035156 127.132812 -134.628906 C 115.023438 -134.628906 107.242188 -121.945312 107.242188 -108.394531 C 107.242188 -81.007812 136.070312 -63.132812 134.917969 -40.070312 C 133.765625 -19.601562 116.464844 -4.324219 98.882812 -4.324219 C 66.015625 -4.324219 43.242188 -49.875 34.304688 -107.816406 L 34.304688 -107.53125 C 26.808594 -151.636719 50.449219 -188.539062 88.792969 -188.539062 C 101.765625 -188.539062 110.414062 -185.65625 120.214844 -179.601562 L 120.214844 -206.125 C 113.871094 -209.007812 109.257812 -210.160156 100.324219 -210.160156 C 66.015625 -210.160156 38.054688 -177.871094 30.558594 -143.277344 C 30.269531 -150.195312 29.980469 -157.402344 29.980469 -164.320312 C 29.980469 -206.410156 44.972656 -279.347656 66.015625 -279.347656 C 85.621094 -279.347656 95.421875 -261.183594 121.65625 -261.183594 C 137.511719 -261.183594 149.042969 -271.851562 149.042969 -288.574219 L 147.890625 -288.574219 C 142.414062 -283.09375 137.800781 -281.652344 132.035156 -281.652344 C 120.792969 -281.652344 108.105469 -294.339844 92.828125 -294.339844 C 42.667969 -294.339844 8.648438 -231.492188 8.648438 -141.835938 Z M 8.648438 -141.835938 "/></g></g></g><g fill="#000000" fill-opacity="1"><g transform="translate(506.312737, 374.554366)"><g><path d="M 5.765625 -1.152344 L 5.765625 0 L 81.871094 0 C 114.449219 0 128 -26.808594 128 -52.46875 C 128 -76.972656 107.242188 -98.882812 107.242188 -131.457031 C 107.242188 -140.972656 110.988281 -149.332031 118.773438 -156.539062 C 93.117188 -156.539062 85.621094 -130.304688 85.621094 -117.621094 C 85.621094 -83.027344 108.683594 -68.898438 108.683594 -36.035156 C 108.683594 -21.910156 104.359375 -6.054688 78.125 -6.054688 C 78.125 -6.054688 69.476562 -5.765625 61.117188 -5.765625 C 41.226562 -5.765625 38.917969 -20.46875 38.917969 -34.015625 L 38.917969 -228.609375 C 38.917969 -258.878906 37.476562 -275.597656 49.007812 -287.132812 L 49.007812 -288.285156 L 5.765625 -288.285156 L 5.765625 -287.132812 C 17.296875 -275.597656 15.855469 -258.878906 15.855469 -228.609375 L 15.855469 -59.675781 C 15.855469 -29.40625 17.296875 -12.683594 5.765625 -1.152344 Z M 5.765625 -1.152344 "/></g></g></g><g fill="#000000" fill-opacity="1"><g transform="translate(640.069833, 374.554366)"><g><path d="M 49.007812 0 L 49.007812 -1.152344 C 37.476562 -12.683594 38.917969 -29.40625 38.917969 -59.675781 L 38.917969 -228.609375 C 38.917969 -258.878906 37.476562 -275.597656 49.007812 -287.132812 L 49.007812 -288.285156 L 5.765625 -288.285156 L 5.765625 -287.132812 C 17.296875 -275.597656 15.855469 -258.878906 15.855469 -228.609375 L 15.855469 -59.675781 C 15.855469 -29.40625 17.296875 -12.683594 5.765625 -1.152344 L 5.765625 0 Z M 49.007812 0 "/></g></g></g><g fill="#000000" fill-opacity="1"><g transform="translate(694.841071, 374.554366)"><g><path d="M 15.855469 -228.609375 L 15.855469 -59.675781 C 15.855469 -29.40625 17.296875 -12.683594 5.765625 -1.152344 L 5.765625 0 L 49.007812 0 L 49.007812 -1.152344 C 37.476562 -12.683594 38.917969 -29.40625 38.917969 -59.675781 L 38.917969 -224.863281 C 38.917969 -243.023438 33.730469 -268.96875 18.738281 -281.941406 C 24.214844 -279.058594 33.441406 -277.617188 39.785156 -277.617188 C 52.179688 -277.617188 61.980469 -280.210938 76.105469 -280.210938 C 103.207031 -280.210938 119.925781 -239.5625 119.925781 -207.277344 C 119.925781 -170.953125 87.0625 -128.863281 87.0625 -72.648438 C 87.0625 -45.550781 95.421875 -18.738281 105.800781 0 L 132.035156 0 C 115.023438 -36.035156 105.222656 -65.730469 105.222656 -109.835938 C 105.222656 -167.203125 136.933594 -187.097656 136.933594 -230.339844 C 136.933594 -262.625 113.296875 -294.050781 83.890625 -294.050781 C 64.574219 -294.050781 54.199219 -286.265625 34.882812 -284.824219 C 27.386719 -284.25 13.261719 -286.84375 5.765625 -288.285156 L 5.765625 -287.132812 C 17.296875 -275.597656 15.855469 -258.878906 15.855469 -228.609375 Z M 15.855469 -228.609375 "/></g></g></g><g fill="#000000" fill-opacity="1"><g transform="translate(837.534532, 374.554366)"><g><path d="M 5.765625 -58.523438 C 5.765625 -36.613281 10.667969 -12.972656 14.125 0 L 40.359375 0 C 36.035156 -16.71875 31.132812 -32.574219 31.132812 -62.558594 C 31.132812 -108.105469 46.414062 -159.710938 93.691406 -159.710938 C 101.1875 -159.710938 107.816406 -157.980469 113.007812 -153.945312 L 113.007812 -59.675781 C 113.007812 -29.40625 114.449219 -12.683594 102.917969 -1.152344 L 102.917969 0 L 146.160156 0 L 146.160156 -1.152344 C 134.628906 -12.683594 136.070312 -29.40625 136.070312 -59.675781 L 136.070312 -228.609375 C 136.070312 -258.878906 134.628906 -275.597656 146.160156 -287.132812 L 146.160156 -288.285156 L 51.027344 -288.285156 C 25.367188 -288.285156 12.109375 -278.769531 12.109375 -258.589844 C 12.109375 -223.132812 50.738281 -208.429688 50.738281 -183.347656 C 50.738281 -154.519531 5.765625 -120.792969 5.765625 -58.523438 Z M 61.691406 -282.519531 L 94.269531 -282.519531 C 115.601562 -282.519531 113.007812 -270.410156 113.007812 -244.175781 L 113.007812 -176.140625 C 108.683594 -178.160156 103.78125 -179.3125 99.167969 -179.3125 C 68.898438 -179.3125 51.601562 -148.753906 44.109375 -136.648438 C 49.007812 -150.484375 57.945312 -162.878906 57.945312 -180.464844 C 57.945312 -209.582031 36.035156 -227.167969 36.035156 -258.878906 C 36.035156 -271.273438 42.378906 -282.519531 61.691406 -282.519531 Z M 61.691406 -282.519531 "/></g></g></g></svg>