<svg xmlns="http://www.w3.org/2000/svg" xmlns:xlink="http://www.w3.org/1999/xlink" width="500" zoomAndPan="magnify" viewBox="0 0 375 374.999991" height="500" preserveAspectRatio="xMidYMid meet" version="1.0"><defs><g/></defs><g fill="#000000" fill-opacity="1"><g transform="translate(75.08313, 212.793253)"><g><path d="M -20.148438 1.292969 C -7.429688 -0.304688 -0.00390625 -6.605469 -0.835938 -13.230469 C -1.441406 -18.066406 -6.582031 -20.519531 -11.539062 -19.894531 C -15.117188 -19.445312 -17.25 -15.710938 -19.929688 -15.375 C -20.5 -15.304688 -20.839844 -15.382812 -21.230469 -15.542969 C -21.015625 -13.835938 -19.089844 -12.960938 -17.179688 -13.203125 C -13.320312 -13.6875 -11.308594 -18.066406 -8.039062 -18.3125 C -5.132812 -18.511719 -2.671875 -16.34375 -2.359375 -13.863281 C -1.777344 -9.230469 -7.796875 -5.214844 -15.808594 -2.929688 L -15.769531 -2.933594 C -21.855469 -1.097656 -27.476562 -3.777344 -28.152344 -9.179688 C -28.382812 -11.011719 -28.128906 -12.28125 -27.449219 -13.769531 L -31.1875 -13.300781 C -31.484375 -12.355469 -31.5625 -11.683594 -31.40625 -10.425781 C -30.796875 -5.585938 -25.75 -2.214844 -20.742188 -1.773438 C -21.710938 -1.609375 -22.722656 -1.441406 -23.699219 -1.320312 C -29.632812 -0.574219 -40.179688 -1.394531 -40.554688 -4.363281 C -40.902344 -7.128906 -38.511719 -8.832031 -38.976562 -12.527344 C -39.257812 -14.765625 -40.964844 -16.203125 -43.324219 -15.90625 L -43.304688 -15.742188 C -42.433594 -15.066406 -42.148438 -14.441406 -42.046875 -13.628906 C -41.847656 -12.042969 -43.410156 -10.03125 -43.140625 -7.878906 C -42.253906 -0.804688 -32.789062 2.878906 -20.148438 1.292969 Z M -20.148438 1.292969 "/></g></g></g><g fill="#000000" fill-opacity="1"><g transform="translate(72.598973, 179.53505)"><g><path d="M -29.375 -8.460938 C -19.792969 -6.890625 -19.636719 -4.292969 -13.574219 -3.300781 C -9.046875 -2.558594 -1.828125 -6.070312 2.476562 -9.804688 L 2.503906 -9.96875 C 1.226562 -11.046875 -7.394531 -20.761719 -18.714844 -22.613281 C -25.425781 -23.710938 -28.792969 -22.144531 -31.746094 -22.628906 C -34.738281 -23.117188 -35.625 -24.800781 -37.179688 -26.964844 L -37.46875 -26.722656 C -37.101562 -26.164062 -37.097656 -25.167969 -37.257812 -24.195312 C -37.703125 -21.488281 -38.925781 -20.859375 -39.230469 -18.996094 C -39.605469 -16.695312 -38.011719 -14.523438 -36.105469 -14.253906 L -36.078125 -14.414062 C -36.46875 -14.808594 -37.003906 -15.601562 -36.84375 -16.574219 C -36.632812 -17.867188 -35.464844 -18.921875 -35.160156 -20.78125 C -35.046875 -21.46875 -35.070312 -22.59375 -35.253906 -23.246094 C -33.417969 -21.285156 -31.792969 -20.0625 -29.648438 -19.710938 C -25.445312 -19.023438 -21.382812 -20.519531 -14.792969 -19.441406 C -8.242188 -18.367188 -4.441406 -15.214844 -0.707031 -11.40625 C -3.910156 -8.320312 -11.832031 -5.050781 -16.886719 -5.878906 C -20.890625 -6.53125 -25.40625 -10.632812 -31.753906 -11.671875 C -35.554688 -12.292969 -36.953125 -11.859375 -39.757812 -10.699219 L -40.359375 -7.019531 C -34.417969 -9.078125 -31.839844 -8.863281 -29.375 -8.460938 Z M -29.375 -8.460938 "/></g></g></g><g fill="#000000" fill-opacity="1"><g transform="translate(79.220617, 148.234571)"><g><path d="M -17.621094 -9.863281 C -6.070312 -4.292969 3.585938 -5.546875 6.484375 -11.5625 C 8.601562 -15.953125 5.621094 -20.800781 1.117188 -22.972656 C -2.128906 -24.539062 -5.945312 -22.558594 -8.382812 -23.734375 C -8.898438 -23.984375 -9.140625 -24.238281 -9.382812 -24.582031 C -10.132812 -23.03125 -8.988281 -21.253906 -7.253906 -20.417969 C -3.75 -18.726562 0.316406 -21.3125 3.199219 -19.742188 C 5.746094 -18.332031 6.636719 -15.171875 5.550781 -12.921875 C 3.519531 -8.714844 -3.714844 -8.613281 -11.683594 -11.046875 L -11.644531 -11.027344 C -17.753906 -12.792969 -21.015625 -18.09375 -18.648438 -23 C -17.851562 -24.660156 -16.945312 -25.589844 -15.566406 -26.472656 L -18.960938 -28.109375 C -19.722656 -27.476562 -20.152344 -26.957031 -20.707031 -25.8125 C -22.824219 -21.421875 -20.417969 -15.847656 -16.453125 -12.753906 C -17.355469 -13.144531 -18.296875 -13.554688 -19.179688 -13.980469 C -24.566406 -16.578125 -32.976562 -23 -31.679688 -25.691406 C -30.46875 -28.199219 -27.539062 -28.335938 -25.921875 -31.691406 C -24.941406 -33.722656 -25.59375 -35.855469 -27.734375 -36.886719 L -27.804688 -36.738281 C -27.441406 -35.699219 -27.542969 -35.023438 -27.898438 -34.285156 C -28.59375 -32.84375 -31 -32.003906 -31.941406 -30.046875 C -35.039062 -23.628906 -29.09375 -15.394531 -17.621094 -9.863281 Z M -17.621094 -9.863281 "/></g></g></g><g fill="#000000" fill-opacity="1"><g transform="translate(95.323696, 118.948083)"><g><path d="M 0.421875 -0.71875 L 0.546875 -0.613281 L 7.746094 -8.679688 C 10.828125 -12.136719 9.265625 -16.109375 6.542969 -18.535156 C 3.945312 -20.851562 -0.339844 -20.726562 -3.792969 -23.804688 C -4.804688 -24.707031 -5.335938 -25.894531 -5.363281 -27.402344 C -7.789062 -24.679688 -5.71875 -21.40625 -4.371094 -20.203125 C -0.703125 -16.933594 2.976562 -18.042969 6.460938 -14.933594 C 7.957031 -13.597656 9.230469 -11.636719 6.75 -8.855469 C 6.75 -8.855469 5.960938 -7.914062 5.171875 -7.027344 C 3.289062 -4.917969 1.511719 -6.0625 0.0742188 -7.34375 L -20.558594 -25.753906 C -23.769531 -28.617188 -25.675781 -30.042969 -25.808594 -32.359375 L -25.929688 -32.46875 L -30.023438 -27.882812 L -29.898438 -27.773438 C -27.585938 -27.90625 -25.949219 -26.171875 -22.738281 -23.304688 L -4.828125 -7.328125 C -1.617188 -4.460938 0.292969 -3.035156 0.421875 -0.71875 Z M 0.421875 -0.71875 "/></g></g></g><g fill="#000000" fill-opacity="1"><g transform="translate(117.105315, 97.391554)"><g><path d="M 5.660156 -4.054688 L 5.566406 -4.1875 C 3.277344 -4.566406 2.0625 -6.617188 -0.441406 -10.113281 L -14.421875 -29.628906 C -16.929688 -33.125 -18.480469 -34.9375 -18.101562 -37.222656 L -18.195312 -37.355469 L -23.191406 -33.777344 L -23.097656 -33.644531 C -20.808594 -33.265625 -19.59375 -31.214844 -17.085938 -27.71875 L -3.105469 -8.207031 C -0.601562 -4.707031 0.949219 -2.898438 0.570312 -0.609375 L 0.664062 -0.476562 Z M 5.660156 -4.054688 "/></g></g></g><g fill="#000000" fill-opacity="1"><g transform="translate(133.276736, 86.561989)"><g><path d="M -10.449219 -30.839844 L -1.191406 -8.691406 C 0.46875 -4.722656 1.574219 -2.609375 0.691406 -0.46875 L 0.757812 -0.316406 L 6.425781 -2.6875 L 6.363281 -2.835938 C 4.21875 -3.714844 3.492188 -5.988281 1.832031 -9.957031 L -7.21875 -31.613281 C -8.214844 -33.992188 -10.316406 -37.109375 -12.996094 -37.992188 C -12.117188 -37.914062 -10.828125 -38.230469 -10 -38.578125 C -8.375 -39.257812 -7.230469 -40.132812 -5.378906 -40.90625 C -1.824219 -42.390625 2.59375 -37.980469 4.363281 -33.746094 C 6.355469 -28.984375 4.351562 -21.664062 7.433594 -14.296875 C 8.917969 -10.742188 11.484375 -7.6875 13.871094 -5.796875 L 17.308594 -7.234375 C 13.105469 -11.027344 10.191406 -14.382812 7.777344 -20.167969 C 4.632812 -27.6875 7.699219 -32.03125 5.328125 -37.703125 C 3.558594 -41.933594 -1.261719 -44.757812 -5.117188 -43.148438 C -7.648438 -42.089844 -8.582031 -40.5 -11.035156 -39.253906 C -11.988281 -38.765625 -13.980469 -38.332031 -15.042969 -38.109375 L -14.980469 -37.960938 C -12.835938 -37.078125 -12.109375 -34.808594 -10.449219 -30.839844 Z M -10.449219 -30.839844 "/></g></g></g><g fill="#000000" fill-opacity="1"><g transform="translate(162.699008, 75.848839)"><g><path d="M -0.140625 -8.355469 C 0.214844 -5.261719 1.292969 -2.003906 1.992188 -0.230469 L 5.695312 -0.660156 C 4.8125 -2.949219 3.863281 -5.105469 3.375 -9.339844 C 2.632812 -15.769531 3.945312 -23.300781 10.621094 -24.070312 C 11.679688 -24.195312 12.644531 -24.058594 13.441406 -23.574219 L 14.976562 -10.265625 C 15.472656 -5.992188 15.949219 -3.65625 14.507812 -1.839844 L 14.527344 -1.679688 L 20.632812 -2.382812 L 20.613281 -2.546875 C 18.796875 -3.984375 18.726562 -6.371094 18.234375 -10.644531 L 15.480469 -34.488281 C 14.984375 -38.761719 14.507812 -41.097656 15.949219 -42.914062 L 15.929688 -43.078125 L 2.5 -41.527344 C -1.121094 -41.105469 -2.835938 -39.546875 -2.507812 -36.699219 C -1.929688 -31.695312 3.761719 -30.25 4.171875 -26.707031 C 4.640625 -22.640625 -1.15625 -17.144531 -0.140625 -8.355469 Z M 4.101562 -40.886719 L 8.699219 -41.417969 C 11.710938 -41.765625 11.542969 -40.011719 11.96875 -36.308594 L 13.078125 -26.707031 C 12.4375 -26.921875 11.726562 -27.003906 11.074219 -26.929688 C 6.800781 -26.433594 4.859375 -21.839844 3.996094 -20.007812 C 4.464844 -22.042969 5.523438 -23.9375 5.234375 -26.417969 C 4.761719 -30.527344 1.382812 -32.652344 0.863281 -37.128906 C 0.664062 -38.878906 1.375 -40.570312 4.101562 -40.886719 Z M 4.101562 -40.886719 "/></g></g></g><g fill="#000000" fill-opacity="1"><g transform="translate(195.560473, 74.052283)"><g/></g></g><g fill="#000000" fill-opacity="1"><g transform="translate(218.963324, 78.129315)"><g><path d="M 14.074219 -29.363281 L 5.222656 -7.050781 C 3.636719 -3.054688 2.949219 -0.769531 0.820312 0.148438 L 0.761719 0.300781 L 6.472656 2.566406 L 6.535156 2.414062 C 5.613281 0.289062 6.679688 -1.84375 8.265625 -5.84375 L 16.921875 -27.660156 C 17.875 -30.058594 18.550781 -33.757812 17.25 -36.257812 C 17.820312 -35.589844 18.964844 -34.914062 19.800781 -34.582031 C 21.441406 -33.933594 22.871094 -33.761719 24.734375 -33.023438 C 28.316406 -31.601562 28.394531 -25.355469 26.703125 -21.09375 C 24.796875 -16.296875 18.25 -12.457031 15.304688 -5.03125 C 13.886719 -1.453125 13.585938 2.527344 13.972656 5.542969 L 17.4375 6.917969 C 17.082031 1.269531 17.34375 -3.167969 19.652344 -8.992188 C 22.660156 -16.570312 27.890625 -17.535156 30.15625 -23.246094 C 31.847656 -27.511719 30.375 -32.902344 26.488281 -34.441406 C 23.9375 -35.453125 22.160156 -34.96875 19.53125 -35.792969 C 18.511719 -36.109375 16.78125 -37.191406 15.867188 -37.773438 L 15.808594 -37.621094 C 16.726562 -35.496094 15.660156 -33.363281 14.074219 -29.363281 Z M 14.074219 -29.363281 "/></g></g></g><g fill="#000000" fill-opacity="1"><g transform="translate(247.505373, 91.060789)"><g><path d="M 15.546875 -13.878906 C 12.671875 -10.148438 8.496094 -9.691406 5.398438 -5.667969 C 2.296875 -1.640625 3.6875 3.871094 7.808594 7.046875 C 11.929688 10.21875 17.617188 10.152344 20.71875 6.128906 C 23.816406 2.105469 23.1875 -2.050781 26.0625 -5.78125 C 28.9375 -9.515625 33.113281 -9.96875 36.210938 -13.996094 C 39.3125 -18.019531 37.921875 -23.535156 33.800781 -26.710938 C 29.679688 -29.882812 23.992188 -29.816406 20.890625 -25.789062 C 17.792969 -21.765625 18.421875 -17.613281 15.546875 -13.878906 Z M 33.226562 -25.960938 C 36.277344 -23.613281 35.480469 -18.484375 32.558594 -14.6875 C 30.410156 -11.898438 27.410156 -9.347656 25.1875 -6.457031 C 22.960938 -3.570312 21.261719 -0.0195312 19.113281 2.773438 C 16.1875 6.570312 11.433594 8.648438 8.382812 6.300781 C 5.332031 3.949219 6.128906 -1.175781 9.050781 -4.972656 C 11.199219 -7.765625 14.199219 -10.316406 16.421875 -13.203125 C 18.648438 -16.09375 20.347656 -19.644531 22.496094 -22.4375 C 25.421875 -26.234375 30.175781 -28.3125 33.226562 -25.960938 Z M 33.226562 -25.960938 "/></g></g></g><g fill="#000000" fill-opacity="1"><g transform="translate(271.873398, 111.852286)"><g><path d="M 0.621094 0.5625 L 0.488281 0.660156 L 4.144531 5.597656 L 4.277344 5.5 C 4.617188 3.207031 6.648438 1.957031 10.105469 -0.601562 L 31.734375 -16.621094 C 34.992188 -19.035156 36.183594 -18.59375 38.109375 -15.992188 C 39.648438 -13.917969 40.320312 -11.5625 38.082031 -9.90625 C 33.34375 -6.394531 27.335938 -12.855469 23.582031 -10.074219 C 22.429688 -9.222656 21.929688 -7.628906 22.808594 -6.441406 C 23.976562 -4.863281 25.304688 -5.132812 26.476562 -3.554688 C 27.523438 -2.136719 26.882812 -0.386719 25.367188 0.734375 C 23.03125 2.464844 18.027344 2.042969 13.652344 5.285156 C 11.414062 6.941406 8.789062 10.007812 9.363281 14.015625 L 13.261719 13.984375 C 12.679688 11.40625 13.75 9.339844 15.261719 8.21875 C 18.785156 5.609375 22.078125 5.71875 25.371094 3.28125 C 26.6875 2.304688 29.574219 -0.953125 27.28125 -4.046875 C 25.941406 -5.859375 24.628906 -5.496094 23.75 -6.683594 C 23.066406 -7.605469 23.417969 -8.78125 24.242188 -9.390625 C 28.125 -12.269531 34.460938 -2.890625 40.320312 -7.230469 C 41.503906 -8.109375 43.304688 -10.359375 40.5 -14.144531 L 33.40625 -23.722656 L 33.273438 -23.625 C 32.933594 -21.332031 30.902344 -20.085938 27.445312 -17.523438 L 8.15625 -3.238281 C 4.699219 -0.675781 2.910156 0.902344 0.621094 0.5625 Z M 0.621094 0.5625 "/></g></g></g><g fill="#000000" fill-opacity="1"><g transform="translate(289.096339, 137.739153)"><g><path d="M 0.449219 0.707031 L 0.292969 0.765625 L 4.1875 10.855469 C 5.855469 15.171875 10.101562 15.597656 13.503906 14.285156 C 16.75 13.03125 18.59375 9.160156 22.914062 7.492188 C 24.175781 7.007812 25.472656 7.074219 26.828125 7.738281 C 25.515625 4.335938 21.652344 4.6875 19.972656 5.335938 C 15.386719 7.105469 14.691406 10.882812 10.335938 12.566406 C 8.464844 13.289062 6.140625 13.523438 4.796875 10.046875 C 4.796875 10.046875 4.316406 8.914062 3.890625 7.808594 C 2.871094 5.171875 4.703125 4.113281 6.5 3.417969 L 32.296875 -6.535156 C 36.308594 -8.082031 38.453125 -9.128906 40.570312 -8.191406 L 40.726562 -8.25 L 38.511719 -13.980469 L 38.359375 -13.921875 C 37.421875 -11.804688 35.128906 -11.140625 31.117188 -9.589844 L 8.722656 -0.949219 C 4.710938 0.597656 2.566406 1.644531 0.449219 0.707031 Z M 0.449219 0.707031 "/></g></g></g><g fill="#000000" fill-opacity="1"><g transform="translate(298.329569, 166.959022)"><g><path d="M 1.023438 6.886719 L 1.1875 6.863281 C 2.566406 5.003906 4.945312 4.855469 9.199219 4.222656 L 32.945312 0.695312 C 37.199219 0.0625 39.519531 -0.492188 41.378906 0.890625 L 41.542969 0.867188 L 40.640625 -5.210938 L 40.476562 -5.1875 C 39.097656 -3.328125 36.71875 -3.179688 32.460938 -2.546875 L 8.71875 0.980469 C 4.464844 1.613281 2.144531 2.167969 0.28125 0.785156 L 0.121094 0.808594 Z M 1.023438 6.886719 "/></g></g></g><g fill="#000000" fill-opacity="1"><g transform="translate(300.582598, 186.291695)"><g><path d="M 32.210938 4.785156 L 8.277344 2.910156 C 3.988281 2.574219 1.605469 2.589844 0.0976562 0.828125 L -0.0625 0.816406 L -0.542969 6.941406 L -0.378906 6.957031 C 1.382812 5.449219 3.734375 5.839844 8.023438 6.175781 L 31.421875 8.007812 C 33.996094 8.210938 37.726562 7.761719 39.730469 5.785156 C 39.261719 6.527344 38.957031 7.816406 38.886719 8.714844 C 38.75 10.472656 39.007812 11.890625 38.851562 13.890625 C 38.550781 17.730469 32.605469 19.648438 28.03125 19.289062 C 22.886719 18.886719 17.289062 13.761719 9.324219 13.140625 C 5.484375 12.839844 1.59375 13.726562 -1.175781 14.988281 L -1.464844 18.703125 C 3.828125 16.695312 8.144531 15.636719 14.390625 16.125 C 22.519531 16.761719 24.984375 21.476562 31.109375 21.953125 C 35.683594 22.3125 40.398438 19.3125 40.722656 15.148438 C 40.9375 12.410156 39.953125 10.855469 39.960938 8.101562 C 39.964844 7.035156 40.488281 5.0625 40.773438 4.015625 L 40.613281 4.003906 C 38.851562 5.507812 36.496094 5.121094 32.210938 4.785156 Z M 32.210938 4.785156 "/></g></g></g><g fill="#000000" fill-opacity="1"><g transform="translate(296.241602, 217.655877)"><g/></g></g><g fill="#000000" fill-opacity="1"><g transform="translate(288.734852, 239.782304)"><g><path d="M -5.496094 6.347656 C -8.6875 10.863281 -5.433594 12.863281 -7.042969 15.136719 C -8.746094 17.546875 -11.738281 15.179688 -14.765625 19.460938 C -17.179688 22.871094 -15.472656 28.191406 -11.726562 30.839844 C -6.710938 34.390625 -1.800781 32.34375 4.851562 37.050781 C 10.238281 40.859375 12.609375 43.539062 15.394531 49.171875 L 17.546875 46.128906 C 16.074219 42.679688 13.800781 40.21875 10.65625 37.996094 C 3.433594 32.886719 -3.371094 33.640625 -7.585938 30.660156 C -11.332031 28.011719 -14.132812 21.964844 -11.980469 18.921875 C -10.890625 17.382812 -8.261719 16.785156 -6.628906 17.386719 L 16.113281 33.472656 C 19.625 35.957031 21.683594 37.160156 22.074219 39.445312 L 22.207031 39.539062 L 25.757812 34.523438 L 25.621094 34.429688 C 23.339844 34.820312 21.515625 33.28125 18.003906 30.796875 L -4.738281 14.710938 C -5.847656 13.375 -6.160156 10.695312 -5.070312 9.15625 C -2.917969 6.113281 3.710938 6.738281 7.457031 9.390625 C 11.671875 12.371094 13.226562 19.039062 20.449219 24.148438 C 23.59375 26.371094 26.671875 27.695312 30.417969 27.933594 L 32.570312 24.890625 C 26.328125 24.140625 23.011719 22.796875 17.625 18.988281 C 10.972656 14.28125 11.265625 8.972656 6.25 5.421875 C 2.503906 2.773438 -3.082031 2.9375 -5.496094 6.347656 Z M -5.496094 6.347656 "/></g></g></g><g fill="#000000" fill-opacity="1"><g transform="translate(261.724862, 273.439727)"><g><path d="M 10.730469 17.105469 C 3.269531 6.679688 -5.808594 3.148438 -11.238281 7.035156 C -15.203125 9.871094 -14.910156 15.554688 -12.003906 19.621094 C -9.90625 22.550781 -5.605469 22.648438 -4.03125 24.847656 C -3.699219 25.3125 -3.605469 25.652344 -3.558594 26.070312 C -2.160156 25.070312 -2.308594 22.960938 -3.429688 21.394531 C -5.695312 18.230469 -10.503906 18.546875 -12.277344 15.785156 C -13.835938 13.328125 -13.101562 10.128906 -11.070312 8.675781 C -7.269531 5.957031 -0.871094 9.339844 4.949219 15.296875 L 4.925781 15.261719 C 9.441406 19.738281 9.761719 25.957031 5.328125 29.128906 C 3.832031 30.203125 2.59375 30.582031 0.960938 30.695312 L 3.152344 33.757812 C 4.125 33.566406 4.753906 33.320312 5.785156 32.582031 C 9.75 29.746094 10.3125 23.699219 8.316406 19.082031 C 8.921875 19.859375 9.550781 20.667969 10.125 21.46875 C 13.605469 26.332031 17.902344 36 15.46875 37.738281 C 13.207031 39.359375 10.570312 38.074219 7.539062 40.242188 C 5.707031 41.554688 5.257812 43.738281 6.640625 45.671875 L 6.773438 45.574219 C 6.953125 44.488281 7.367188 43.941406 8.03125 43.464844 C 9.332031 42.535156 11.847656 42.953125 13.613281 41.6875 C 19.410156 37.542969 18.144531 27.464844 10.730469 17.105469 Z M 10.730469 17.105469 "/></g></g></g><g fill="#000000" fill-opacity="1"><g transform="translate(233.690775, 291.478629)"><g><path d="M -0.722656 0.421875 L -0.773438 0.265625 L -5.847656 2.015625 C -13.554688 4.671875 -16.539062 15.621094 -13.804688 23.5625 C -12.535156 27.242188 -9.304688 30.460938 -5.664062 29.203125 C -3.222656 28.363281 -3.175781 25.488281 -1.238281 24.820312 C -0.15625 24.445312 0.707031 25.191406 1.042969 26.15625 C 2.402344 30.109375 -6.546875 35.574219 -4.691406 40.957031 C -3.78125 43.589844 -1.21875 44.613281 1.878906 43.546875 C 5.015625 42.464844 6.296875 41.15625 9.511719 40.050781 L 12.570312 38.996094 L 12.519531 38.839844 C 10.433594 37.824219 9.855469 35.511719 8.453125 31.445312 L 0.632812 8.75 C -0.769531 4.683594 -1.738281 2.503906 -0.722656 0.421875 Z M -4.132812 4.976562 C -4.132812 4.976562 -4.121094 5.015625 -4.121094 5.015625 L 7.035156 37.394531 C 7.984375 40.144531 5.984375 41.136719 3.855469 41.871094 C 0.953125 42.871094 -0.691406 41.875 -1.503906 39.515625 C -3.425781 33.9375 3.375 30.164062 1.851562 25.746094 C 1.386719 24.390625 0.160156 23.472656 -1.429688 24.019531 C -3.558594 24.753906 -3.757812 26.816406 -5.773438 27.507812 C -8.328125 28.390625 -9.710938 24.75 -10.671875 21.960938 C -13.234375 14.527344 -11.296875 4.933594 -5.914062 3.078125 C -4.832031 2.703125 -4.308594 4.472656 -4.132812 4.976562 Z M -4.132812 4.976562 "/></g></g></g><g fill="#000000" fill-opacity="1"><g transform="translate(202.326318, 300.463515)"><g><path d="M -8.511719 -0.328125 C -13.828125 -0.0195312 -17.144531 5.796875 -16.773438 12.175781 C -16.0625 24.445312 -1.441406 28.191406 -1.039062 35.144531 C -0.964844 36.410156 -1.910156 39.871094 -3.957031 39.992188 C -6.695312 40.148438 -9.914062 37.75 -12 37.871094 C -14.328125 38.007812 -15.484375 40.003906 -15.332031 41.921875 L -15.171875 41.914062 C -14.867188 41.445312 -14.199219 40.996094 -13.214844 40.9375 C -10.066406 40.753906 -8.949219 42.371094 -6.371094 42.222656 C -3.589844 42.0625 1.320312 38.289062 0.992188 32.644531 C 0.574219 25.449219 -13.425781 21.746094 -14.085938 10.417969 C -14.34375 5.960938 -12.800781 0.742188 -8.34375 0.484375 C -5.277344 0.304688 -3.753906 1.777344 -3.507812 5.988281 C -3.304688 9.507812 -5.449219 11.4375 -5 14.9375 C -4.765625 16.894531 -3.070312 19.175781 -0.90625 19.050781 C -0.332031 19.015625 -0.132812 18.925781 0.179688 18.660156 L 0.171875 18.496094 C -0.671875 18.09375 -1.539062 16.585938 -1.628906 15.03125 C -1.820312 11.757812 -0.238281 10.027344 -0.425781 6.796875 C -0.636719 3.15625 -2.992188 -0.648438 -8.511719 -0.328125 Z M -8.511719 -0.328125 "/></g></g></g><g fill="#000000" fill-opacity="1"><g transform="translate(172.107195, 300.346329)"><g><path d="M -6.875 -1.117188 L -6.898438 -0.953125 C -5.546875 0.925781 -6.128906 3.238281 -6.816406 7.484375 L -10.664062 31.179688 C -11.351562 35.425781 -11.53125 37.804688 -13.410156 39.15625 L -13.4375 39.320312 L -7.371094 40.304688 L -7.34375 40.140625 C -8.699219 38.261719 -8.117188 35.949219 -7.425781 31.703125 L -3.582031 8.007812 C -2.894531 3.761719 -2.714844 1.386719 -0.835938 0.03125 L -0.808594 -0.132812 Z M -6.875 -1.117188 "/></g></g></g><g fill="#000000" fill-opacity="1"><g transform="translate(152.99608, 296.613507)"><g><path d="M -13.960938 34.34375 L -14.152344 34.265625 C -15.339844 34.800781 -17.105469 35.007812 -18.699219 34.363281 C -22.535156 32.804688 -22.691406 30.792969 -27.242188 28.941406 C -21.394531 29.023438 -18.855469 25.058594 -16.863281 20.164062 L -10.632812 4.832031 C -9.011719 0.847656 -8.304688 -1.429688 -6.171875 -2.332031 L -6.109375 -2.484375 L -11.800781 -4.796875 L -11.863281 -4.644531 C -10.960938 -2.511719 -12.046875 -0.386719 -13.667969 3.597656 L -20.515625 20.445312 C -24.019531 29.058594 -27.96875 27.898438 -32 29 C -33.636719 29.441406 -34.171875 30.328125 -34.332031 31.148438 L -34.179688 31.210938 C -32.535156 30.109375 -30.425781 31.007812 -29.0625 31.566406 C -26.59375 32.566406 -24.691406 35.066406 -21.199219 36.484375 C -18.203125 37.703125 -15.519531 36.761719 -13.960938 34.34375 Z M -13.960938 34.34375 "/></g></g></g><g fill="#000000" fill-opacity="1"><g transform="translate(124.681241, 283.581674)"><g><path d="M -13.476562 15.035156 C -5.515625 4.984375 -4.628906 -4.710938 -9.863281 -8.855469 C -13.683594 -11.882812 -19.070312 -10.035156 -22.171875 -6.117188 C -24.410156 -3.289062 -23.316406 0.871094 -24.992188 2.988281 C -25.347656 3.4375 -25.648438 3.621094 -26.039062 3.78125 C -24.691406 4.847656 -22.703125 4.125 -21.507812 2.613281 C -19.09375 -0.4375 -20.726562 -4.972656 -18.5625 -7.4375 C -16.628906 -9.617188 -13.355469 -9.792969 -11.394531 -8.242188 C -7.734375 -5.34375 -9.214844 1.742188 -13.332031 8.984375 L -13.308594 8.953125 C -16.363281 14.527344 -22.253906 16.550781 -26.523438 13.167969 C -27.96875 12.023438 -28.675781 10.941406 -29.234375 9.402344 L -31.574219 12.355469 C -31.121094 13.234375 -30.710938 13.773438 -29.714844 14.558594 C -25.894531 17.585938 -19.929688 16.457031 -16.042969 13.265625 C -16.621094 14.058594 -17.226562 14.890625 -17.835938 15.660156 C -21.550781 20.347656 -29.652344 27.148438 -31.996094 25.292969 C -34.179688 23.5625 -33.671875 20.675781 -36.59375 18.363281 C -38.359375 16.964844 -40.585938 17.132812 -42.058594 18.996094 L -41.929688 19.097656 C -40.839844 18.972656 -40.199219 19.21875 -39.554688 19.726562 C -38.300781 20.71875 -38.007812 23.25 -36.308594 24.597656 C -30.71875 29.023438 -21.386719 25.023438 -13.476562 15.035156 Z M -13.476562 15.035156 "/></g></g></g><g fill="#000000" fill-opacity="1"><g transform="translate(99.625568, 261.445166)"><g><path d="M -4.289062 -7.363281 C -7.398438 -11.683594 -14.082031 -11.367188 -19.269531 -7.632812 C -29.246094 -0.457031 -24.570312 13.894531 -30.226562 17.960938 C -31.253906 18.703125 -34.683594 19.757812 -35.882812 18.09375 C -37.484375 15.867188 -37.183594 11.867188 -38.402344 10.171875 C -39.769531 8.273438 -42.070312 8.367188 -43.609375 9.527344 L -43.515625 9.660156 C -42.957031 9.660156 -42.21875 9.988281 -41.644531 10.785156 C -39.800781 13.347656 -40.566406 15.160156 -39.0625 17.253906 C -37.433594 19.515625 -31.617188 21.636719 -27.027344 18.335938 C -21.175781 14.125 -25.554688 0.320312 -16.347656 -6.304688 C -12.722656 -8.914062 -7.488281 -10.40625 -4.878906 -6.785156 C -3.085938 -4.289062 -3.511719 -2.214844 -6.9375 0.246094 C -9.796875 2.304688 -12.574219 1.527344 -15.292969 3.785156 C -16.816406 5.035156 -17.835938 7.683594 -16.566406 9.449219 C -16.234375 9.914062 -16.046875 10.03125 -15.65625 10.152344 L -15.523438 10.058594 C -15.636719 9.128906 -14.828125 7.589844 -13.5625 6.679688 C -10.902344 4.765625 -8.59375 5.171875 -5.964844 3.28125 C -3.003906 1.152344 -1.058594 -2.871094 -4.289062 -7.363281 Z M -4.289062 -7.363281 "/></g></g></g></svg>