<?xml version="1.0" encoding="UTF-8"?>
<svg id="Layer_1" data-name="Layer 1" xmlns="http://www.w3.org/2000/svg" viewBox="0 0 1046.42 652.43">
  <defs>
    <style>
      .cls-1 {
        fill: ivory;
      }
    </style>
  </defs>
  <path class="cls-1" d="m0,649.88v2.56h168.86c72.28,0,102.34-59.48,102.34-116.42s-46.05-102.98-46.05-175.26c0-21.11,8.31-39.66,25.58-55.65-56.93,0-73.56,58.2-73.56,86.35,0,76.76,51.17,108.1,51.17,181.02,0,31.34-9.59,66.52-67.8,66.52,0,0-19.19.64-37.74.64-44.14,0-49.26-32.63-49.26-62.69V145.2c0-67.16-3.2-104.26,22.39-129.85v-2.56H0v2.56c25.59,25.59,22.39,62.69,22.39,129.85v374.83c0,67.16,3.2,104.26-22.39,129.85Z"/>
  <path class="cls-1" d="m392.73,652.43v-2.56c-25.59-25.59-22.39-62.69-22.39-129.85V145.2c0-67.16-3.2-104.26,22.39-129.85v-2.56h-95.95v2.56c25.59,25.59,22.39,62.69,22.39,129.85v374.83c0,67.16,3.2,104.26-22.39,129.85v2.56h95.95Z"/>
  <path class="cls-1" d="m440.69,145.2v374.83c0,67.16,3.2,104.26-22.39,129.85v2.56h95.95v-2.56c-25.59-25.59-22.39-62.69-22.39-129.85V153.51c0-40.3-11.51-97.86-44.77-126.65,12.15,6.4,32.62,9.59,46.69,9.59,27.51,0,49.25-5.76,80.59-5.76,60.13,0,97.22,90.19,97.22,161.83,0,80.59-72.92,173.98-72.92,298.71,0,60.13,18.55,119.61,41.58,161.19h58.2c-37.73-79.95-59.48-145.84-59.48-243.7,0-127.29,70.36-171.42,70.36-267.37,0-71.64-52.45-141.36-117.69-141.36-42.85,0-65.89,17.27-108.74,20.47-16.63,1.28-47.97-4.48-64.6-7.68v2.56c25.59,25.59,22.39,62.69,22.39,129.85Z"/>
  <path class="cls-1" d="m734.91,522.58c0,48.61,10.88,101.07,18.55,129.85h58.21c-9.6-37.1-20.47-72.28-20.47-138.8,0-101.06,33.9-215.56,138.8-215.56,16.63,0,31.34,3.84,42.85,12.79v209.16c0,67.16,3.2,104.26-22.39,129.85v2.56h95.94v-2.56c-25.58-25.59-22.39-62.69-22.39-129.85V145.2c0-67.16-3.2-104.26,22.39-129.85v-2.56h-211.08c-56.93,0-86.35,21.11-86.35,65.89,0,78.67,85.71,111.3,85.71,166.94,0,63.96-99.79,138.8-99.79,276.96ZM859,25.58h72.28c47.33,0,41.58,26.86,41.58,85.07v150.95c-9.59-4.47-20.47-7.03-30.7-7.03-67.16,0-105.54,67.8-122.17,94.67,10.88-30.7,30.7-58.21,30.7-97.23,0-64.6-48.61-103.62-48.61-173.98,0-27.51,14.07-52.45,56.93-52.45Z"/>
</svg>