<?xml version="1.0" encoding="UTF-8"?>
<svg id="Layer_1" data-name="Layer 1" xmlns="http://www.w3.org/2000/svg" viewBox="0 0 412.8 413.23">
  <defs>
    <style>
      .cls-1 {
        fill: ivory;
      }
    </style>
  </defs>
  <path class="cls-1" d="m30.9,241.75c16.96-2.13,26.86-10.53,25.75-19.36-.81-6.45-7.66-9.72-14.27-8.89-4.77.6-7.61,5.58-11.19,6.03-.76.09-1.21-.01-1.73-.22.29,2.28,2.85,3.44,5.4,3.12,5.15-.65,7.83-6.48,12.19-6.81,3.87-.27,7.16,2.63,7.57,5.93.78,6.18-7.25,11.53-17.93,14.58h.05c-8.11,2.44-15.61-1.13-16.51-8.33-.31-2.44.03-4.14.94-6.12l-4.98.63c-.4,1.26-.5,2.16-.29,3.83.81,6.45,7.54,10.95,14.22,11.54-1.29.22-2.64.44-3.94.6-7.91.99-21.97-.1-22.47-4.06-.46-3.69,2.72-5.96,2.1-10.89-.38-2.98-2.65-4.9-5.8-4.51l.03.22c1.16.9,1.54,1.73,1.68,2.82.27,2.11-1.82,4.8-1.46,7.67,1.18,9.43,13.8,14.34,30.66,12.23Z"/>
  <path class="cls-1" d="m15.29,184.4c12.78,2.09,12.98,5.56,21.07,6.88,6.04.99,15.66-3.69,21.4-8.67l.04-.22c-1.7-1.44-13.2-14.39-28.29-16.86-8.95-1.46-13.44.63-17.38-.02-3.99-.65-5.17-2.9-7.24-5.78l-.39.32c.49.74.49,2.07.28,3.37-.59,3.61-2.22,4.45-2.63,6.93-.5,3.07,1.63,5.96,4.17,6.32l.04-.21c-.52-.53-1.23-1.58-1.02-2.88.28-1.72,1.84-3.13,2.24-5.61.15-.92.12-2.42-.13-3.29,2.45,2.61,4.61,4.24,7.47,4.71,5.6.92,11.02-1.08,19.81.36,8.73,1.43,13.8,5.64,18.78,10.71-4.27,4.11-14.83,8.47-21.57,7.37-5.34-.87-11.36-6.34-19.82-7.72-5.07-.83-6.93-.25-10.67,1.3l-.8,4.91c7.92-2.74,11.36-2.46,14.65-1.92Z"/>
  <path class="cls-1" d="m39.79,140.8c15.4,7.43,28.28,5.76,32.14-2.27,2.82-5.85-1.15-12.32-7.16-15.21-4.33-2.09-9.42.55-12.67-1.02-.69-.33-1.01-.67-1.33-1.13-1,2.07.53,4.44,2.84,5.55,4.67,2.26,10.09-1.19,13.94.9,3.4,1.88,4.58,6.09,3.14,9.09-2.71,5.61-12.35,5.74-22.98,2.5l.05.03c-8.15-2.35-12.49-9.42-9.34-15.96,1.06-2.21,2.27-3.45,4.11-4.63l-4.53-2.18c-1.02.84-1.59,1.54-2.33,3.06-2.82,5.85.39,13.29,5.67,17.41-1.2-.52-2.46-1.07-3.64-1.64-7.18-3.46-18.4-12.03-16.67-15.61,1.61-3.34,5.52-3.53,7.68-8,1.31-2.71.44-5.55-2.42-6.93l-.09.2c.48,1.39.35,2.29-.13,3.27-.93,1.92-4.14,3.04-5.39,5.65-4.13,8.56,3.8,19.54,19.09,26.91Z"/>
  <path class="cls-1" d="m85.32,113.94l.17.14,9.6-10.76c4.11-4.61,2.03-9.91-1.6-13.14-3.46-3.09-9.18-2.92-13.78-7.03-1.35-1.2-2.06-2.79-2.09-4.8-3.23,3.63-.47,7.99,1.32,9.6,4.89,4.36,9.8,2.88,14.44,7.03,1.99,1.78,3.69,4.4.39,8.1,0,0-1.05,1.26-2.1,2.44-2.51,2.81-4.88,1.29-6.8-.42l-27.51-24.55c-4.28-3.82-6.82-5.72-7-8.81l-.16-.15-5.46,6.11.17.15c3.08-.18,5.27,2.14,9.55,5.96l23.88,21.3c4.28,3.82,6.83,5.72,7,8.81Z"/>
  <path class="cls-1" d="m121.34,80.75l-.13-.18c-3.05-.51-4.67-3.24-8.01-7.9l-18.64-26.02c-3.34-4.66-5.41-7.08-4.91-10.13l-.13-.18-6.66,4.77.13.18c3.05.51,4.67,3.24,8.02,7.9l18.64,26.02c3.34,4.67,5.41,7.08,4.9,10.13l.13.18,6.66-4.77Z"/>
  <path class="cls-1" d="m121.42,30.6l12.34,29.53c2.21,5.29,3.69,8.11,2.51,10.96l.09.2,7.56-3.16-.08-.2c-2.86-1.17-3.83-4.2-6.04-9.49l-12.07-28.88c-1.33-3.17-4.13-7.33-7.7-8.51,1.17.1,2.89-.32,3.99-.78,2.17-.91,3.69-2.07,6.16-3.1,4.74-1.98,10.63,3.9,12.99,9.55,2.66,6.35-.02,16.11,4.09,25.93,1.98,4.74,5.4,8.81,8.58,11.33l4.58-1.92c-5.6-5.06-9.49-9.53-12.71-17.24-4.19-10.03-.1-15.82-3.27-23.38-2.36-5.64-8.79-9.41-13.93-7.26-3.38,1.41-4.62,3.53-7.89,5.19-1.27.65-3.93,1.23-5.34,1.53l.08.2c2.86,1.18,3.83,4.2,6.04,9.49Z"/>
  <path class="cls-1" d="m174.4,46.3c.47,4.12,1.91,8.47,2.84,10.83l4.94-.57c-1.18-3.05-2.44-5.93-3.09-11.57-.99-8.57.76-18.61,9.66-19.64,1.41-.17,2.7.02,3.76.66l2.05,17.74c.66,5.7,1.3,8.81-.63,11.23l.03.21,8.14-.94-.03-.22c-2.42-1.92-2.52-5.1-3.17-10.8l-3.67-31.79c-.66-5.7-1.3-8.81.63-11.23l-.03-.22-17.91,2.07c-4.83.56-7.11,2.64-6.68,6.44.77,6.67,8.36,8.6,8.91,13.32.63,5.42-7.1,12.75-5.75,24.47Zm5.66-43.38l6.13-.71c4.02-.46,3.79,1.88,4.36,6.81l1.48,12.8c-.85-.29-1.8-.4-2.67-.3-5.7.66-8.29,6.79-9.44,9.23.63-2.71,2.04-5.24,1.65-8.55-.63-5.48-5.14-8.31-5.83-14.28-.27-2.33.68-4.59,4.32-5.01Z"/>
  <path class="cls-1" d="m268.37,21.33l-11.8,29.75c-2.11,5.33-3.03,8.37-5.87,9.6l-.08.2,7.61,3.02.08-.2c-1.23-2.83.19-5.68,2.31-11.01l11.54-29.09c1.27-3.2,2.17-8.13.44-11.46.76.89,2.29,1.79,3.4,2.23,2.19.86,4.09,1.09,6.58,2.08,4.78,1.9,4.88,10.22,2.63,15.91-2.54,6.4-11.27,11.52-15.2,21.42-1.89,4.77-2.29,10.08-1.78,14.1l4.62,1.83c-.47-7.53-.13-13.45,2.95-21.21,4.01-10.1,10.98-11.39,14.01-19.01,2.26-5.69.29-12.88-4.89-14.93-3.4-1.35-5.77-.7-9.28-1.8-1.36-.42-3.67-1.86-4.89-2.64l-.08.2c1.22,2.83-.2,5.68-2.31,11.01Z"/>
  <path class="cls-1" d="m308.39,59.21c-3.83,4.97-9.4,5.58-13.53,10.95-4.14,5.37-2.28,12.72,3.21,16.95,5.49,4.23,13.08,4.14,17.21-1.22,4.13-5.36,3.29-10.91,7.13-15.88,3.83-4.98,9.4-5.58,13.53-10.95,4.14-5.36,2.28-12.72-3.21-16.95-5.49-4.23-13.08-4.14-17.21,1.23-4.13,5.36-3.29,10.9-7.13,15.88Zm23.57-16.11c4.07,3.13,3.01,9.97-.89,15.03-2.86,3.72-6.86,7.12-9.83,10.97-2.97,3.85-5.23,8.58-8.1,12.31-3.9,5.06-10.24,7.83-14.31,4.7-4.07-3.14-3.01-9.97.89-15.03,2.86-3.72,6.86-7.13,9.83-10.97,2.97-3.85,5.23-8.59,8.1-12.31,3.9-5.06,10.24-7.83,14.31-4.7Z"/>
  <path class="cls-1" d="m320.98,106.19l-.18.13,4.87,6.58.18-.13c.45-3.06,3.16-4.72,7.77-8.14l28.84-21.36c4.34-3.22,5.93-2.63,8.5.84,2.05,2.77,2.95,5.91-.04,8.11-6.32,4.68-14.33-3.93-19.33-.22-1.54,1.14-2.2,3.26-1.03,4.84,1.56,2.1,3.33,1.74,4.89,3.85,1.4,1.89.54,4.22-1.48,5.72-3.11,2.31-9.79,1.74-15.62,6.07-2.98,2.21-6.48,6.3-5.72,11.64l5.2-.04c-.78-3.44.65-6.19,2.67-7.69,4.7-3.48,9.09-3.33,13.48-6.58,1.76-1.3,5.6-5.65,2.55-9.77-1.79-2.42-3.54-1.93-4.71-3.52-.91-1.23-.44-2.8.66-3.61,5.18-3.84,13.63,8.67,21.44,2.88,1.58-1.17,3.98-4.17.24-9.22l-9.46-12.77-.18.13c-.45,3.06-3.16,4.72-7.77,8.14l-25.72,19.05c-4.61,3.42-6.99,5.52-10.05,5.07Z"/>
  <path class="cls-1" d="m343.72,140.9l-.21.08,5.19,13.45c2.22,5.76,7.89,6.32,12.42,4.57,4.33-1.67,6.79-6.83,12.55-9.06,1.68-.65,3.41-.56,5.22.33-1.75-4.54-6.9-4.07-9.14-3.2-6.11,2.36-7.04,7.4-12.85,9.64-2.49.96-5.59,1.28-7.39-3.36,0,0-.64-1.51-1.21-2.98-1.36-3.52,1.08-4.93,3.48-5.85l34.4-13.27c5.35-2.06,8.21-3.46,11.03-2.21l.21-.08-2.95-7.64-.2.08c-1.25,2.82-4.31,3.71-9.66,5.78l-29.86,11.52c-5.35,2.06-8.21,3.46-11.03,2.21Z"/>
  <path class="cls-1" d="m356.79,188.1l.22-.03c1.84-2.48,5.01-2.68,10.68-3.52l31.66-4.7c5.67-.84,8.77-1.58,11.24.26l.22-.03-1.2-8.1-.22.03c-1.84,2.48-5.01,2.68-10.69,3.52l-31.66,4.7c-5.67.84-8.77,1.58-11.25-.26l-.21.03,1.2,8.1Z"/>
  <path class="cls-1" d="m401.38,211.07l-31.91-2.5c-5.72-.45-8.9-.43-10.91-2.78l-.21-.02-.64,8.17.22.02c2.35-2.01,5.48-1.49,11.2-1.04l31.2,2.44c3.43.27,8.41-.33,11.08-2.96-.63.99-1.03,2.71-1.13,3.91-.18,2.34.16,4.23-.05,6.9-.4,5.12-8.33,7.68-14.43,7.2-6.86-.54-14.32-7.37-24.94-8.2-5.12-.4-10.31.78-14,2.46l-.39,4.95c7.06-2.68,12.81-4.09,21.14-3.44,10.84.85,14.13,7.14,22.29,7.77,6.1.48,12.39-3.52,12.82-9.07.29-3.65-1.03-5.72-1.02-9.4,0-1.42.7-4.05,1.08-5.45l-.21-.02c-2.35,2.01-5.49,1.49-11.2,1.04Z"/>
  <path class="cls-1" d="m335.31,284.48c-4.26,6.02.08,8.69-2.06,11.72-2.27,3.21-6.26.06-10.3,5.77-3.22,4.55-.94,11.64,4.05,15.17,6.69,4.73,13.23,2.01,22.1,8.28,7.18,5.08,10.34,8.65,14.06,16.16l2.87-4.06c-1.96-4.6-4.99-7.88-9.19-10.84-9.63-6.81-18.7-5.81-24.32-9.78-4.99-3.53-8.73-11.59-5.86-15.65,1.45-2.05,4.96-2.85,7.14-2.05l30.32,21.45c4.68,3.31,7.43,4.92,7.95,7.96l.18.13,4.73-6.69-.18-.13c-3.04.52-5.47-1.53-10.16-4.84l-30.32-21.45c-1.48-1.78-1.9-5.35-.44-7.41,2.87-4.06,11.71-3.22,16.7.31,5.62,3.97,7.69,12.86,17.32,19.68,4.19,2.96,8.3,4.73,13.29,5.05l2.87-4.06c-8.32-1-12.74-2.79-19.93-7.87-8.87-6.28-8.48-13.35-15.17-18.09-4.99-3.53-12.44-3.31-15.66,1.23Z"/>
  <path class="cls-1" d="m320.93,343.7c-9.95-13.9-22.05-18.61-29.29-13.43-5.29,3.78-4.9,11.36-1.02,16.78,2.8,3.91,8.53,4.04,10.63,6.97.44.62.57,1.07.63,1.63,1.86-1.33,1.67-4.15.17-6.23-3.02-4.22-9.43-3.8-11.8-7.48-2.08-3.28-1.1-7.54,1.61-9.48,5.07-3.63,13.6.89,21.36,8.83l-.03-.05c6.02,5.97,6.45,14.26.54,18.49-1.99,1.43-3.65,1.94-5.82,2.09l2.92,4.08c1.3-.26,2.14-.58,3.51-1.57,5.29-3.78,6.04-11.84,3.38-18,.81,1.04,1.65,2.11,2.41,3.18,4.64,6.48,10.37,19.38,7.13,21.69-3.02,2.16-6.53.45-10.57,3.34-2.44,1.75-3.04,4.66-1.2,7.24l.18-.13c.24-1.45.79-2.18,1.68-2.81,1.73-1.24,5.09-.68,7.44-2.37,7.73-5.53,6.04-18.96-3.84-32.78Z"/>
  <path class="cls-1" d="m268.28,345.51l-.07-.21-6.77,2.33c-10.28,3.54-14.26,18.14-10.61,28.73,1.69,4.91,6,9.2,10.85,7.52,3.26-1.12,3.32-4.95,5.9-5.84,1.44-.5,2.59.49,3.04,1.78,1.81,5.27-10.12,12.56-7.65,19.73,1.21,3.51,4.63,4.88,8.76,3.45,4.18-1.44,5.89-3.19,10.18-4.66l4.08-1.41-.07-.21c-2.78-1.35-3.55-4.44-5.42-9.86l-10.43-30.26c-1.87-5.42-3.16-8.33-1.81-11.1Zm-4.55,6.07l.02.05,14.88,43.17c1.27,3.67-1.4,4.99-4.24,5.97-3.87,1.33-6.06,0-7.15-3.14-2.56-7.44,6.51-12.47,4.47-18.36-.62-1.81-2.26-3.03-4.38-2.3-2.84.98-3.1,3.73-5.79,4.65-3.41,1.18-5.25-3.68-6.53-7.4-3.42-9.91-.83-22.7,6.34-25.18,1.44-.5,2.14,1.86,2.38,2.53Z"/>
  <path class="cls-1" d="m216.07,356.49c-7.09.41-11.51,8.17-11.02,16.67.95,16.36,20.44,21.35,20.98,30.63.1,1.69-1.16,6.3-3.89,6.46-3.65.21-7.94-2.99-10.72-2.83-3.1.18-4.65,2.84-4.44,5.4h.21c.41-.64,1.3-1.23,2.61-1.31,4.2-.24,5.69,1.91,9.12,1.71,3.71-.21,10.26-5.24,9.82-12.77-.56-9.59-19.22-14.53-20.1-29.64-.34-5.94,1.71-12.9,7.66-13.24,4.09-.24,6.12,1.72,6.45,7.34.27,4.69-2.59,7.27-1.99,11.93.31,2.61,2.57,5.65,5.46,5.48.77-.05,1.03-.17,1.45-.52v-.22c-1.14-.54-2.29-2.55-2.41-4.62-.26-4.36,1.85-6.67,1.6-10.98-.28-4.85-3.42-9.93-10.78-9.5Z"/>
  <path class="cls-1" d="m177.96,355.28l-.03.22c1.8,2.51,1.03,5.59.11,11.25l-5.13,31.59c-.92,5.66-1.16,8.83-3.66,10.64l-.04.22,8.09,1.31.04-.22c-1.81-2.51-1.03-5.59-.11-11.25l5.12-31.59c.92-5.66,1.16-8.83,3.66-10.64l.04-.22-8.09-1.31Z"/>
  <path class="cls-1" d="m143.03,397.58l-.26-.1c-1.58.71-3.94.99-6.06.13-5.11-2.08-5.32-4.76-11.39-7.23,7.8.11,11.18-5.18,13.84-11.7l8.31-20.44c2.16-5.31,3.1-8.35,5.95-9.55l.08-.2-7.59-3.08-.08.2c1.2,2.84-.24,5.68-2.41,10.99l-9.13,22.46c-4.67,11.48-9.94,9.94-15.31,11.41-2.18.59-2.9,1.77-3.11,2.86l.2.08c2.19-1.47,5.01-.27,6.82.47,3.29,1.33,5.83,4.67,10.48,6.56,3.99,1.63,7.57.37,9.65-2.85Z"/>
  <path class="cls-1" d="m105.93,354.46c10.61-13.4,11.8-26.33,4.82-31.85-5.09-4.04-12.28-1.57-16.41,3.65-2.98,3.77-1.53,9.32-3.76,12.14-.47.6-.88.84-1.4,1.06,1.8,1.42,4.45.46,6.04-1.56,3.22-4.07,1.04-10.11,3.93-13.4,2.58-2.91,6.94-3.14,9.56-1.07,4.88,3.86,2.91,13.31-2.58,22.97l.03-.04c-4.07,7.43-11.93,10.13-17.62,5.62-1.93-1.53-2.87-2.97-3.61-5.02l-3.12,3.94c.6,1.17,1.15,1.89,2.48,2.94,5.09,4.04,13.05,2.53,18.23-1.72-.77,1.06-1.58,2.17-2.39,3.19-4.95,6.25-15.76,15.32-18.88,12.84-2.91-2.31-2.23-6.16-6.13-9.24-2.35-1.86-5.32-1.64-7.29.84l.17.14c1.45-.17,2.31.16,3.17.84,1.67,1.32,2.06,4.7,4.33,6.49,7.45,5.9,19.9.57,30.44-12.75Z"/>
  <path class="cls-1" d="m84.77,295.08c-4.15-5.76-13.06-5.34-19.97-.36-13.3,9.57-7.07,28.7-14.61,34.13-1.37.99-5.94,2.4-7.54.18-2.14-2.97-1.73-8.3-3.36-10.56-1.82-2.53-4.89-2.41-6.94-.86l.13.18c.74,0,1.73.44,2.49,1.5,2.46,3.42,1.44,5.83,3.44,8.63,2.17,3.02,9.93,5.84,16.05,1.44,7.8-5.61,1.96-24.02,14.24-32.85,4.83-3.48,11.81-5.47,15.29-.64,2.39,3.33,1.82,6.09-2.74,9.37-3.81,2.74-7.52,1.71-11.14,4.72-2.03,1.67-3.39,5.2-1.7,7.55.44.62.69.78,1.21.94l.18-.13c-.15-1.24.93-3.29,2.61-4.51,3.55-2.55,6.63-2.01,10.13-4.53,3.95-2.84,6.54-8.2,2.23-14.19Z"/>
</svg>